<svg id="lock-line" xmlns="http://www.w3.org/2000/svg" width="12.518" height="16.355" viewBox="0 0 12.518 16.355">
  <path id="Path_477" data-name="Path 477" d="M17.059,20.59a1.371,1.371,0,0,0-.62,2.589v1.627h1.138V23.23a1.371,1.371,0,0,0-.518-2.64Z" transform="translate(-10.749 -11.865)" fill="#fff"/>
  <path id="Path_478" data-name="Path 478" d="M17.811,9.552V8.765a4.666,4.666,0,0,0-4.552-4.757A4.666,4.666,0,0,0,8.707,8.765v.787H7v9.673a1.138,1.138,0,0,0,1.138,1.138H18.38a1.138,1.138,0,0,0,1.138-1.138V9.552ZM9.845,8.765a3.528,3.528,0,0,1,3.414-3.619,3.528,3.528,0,0,1,3.414,3.619v.787H9.845ZM8.138,19.225V10.69H18.38v8.535Z" transform="translate(-7 -4.008)" fill="#fff"/>
</svg>
